<?xml version="1.0" encoding="UTF-8"?>
<svg id="Layer_1" xmlns="http://www.w3.org/2000/svg" version="1.1" viewBox="0 0 50 50">
  <!-- Generator: Adobe Illustrator 29.3.1, SVG Export Plug-In . SVG Version: 2.1.0 Build 151)  -->
  <path d="M42.7,8.9h-22.3c-.9-1-2.2-1.6-3.6-1.6H7.3c-2.7,0-4.8,2.2-4.8,4.8v25.7c0,2.7,2.2,4.8,4.8,4.8h35.4c2.7,0,4.8-2.2,4.8-4.8V13.8c0-2.7-2.2-4.8-4.8-4.8ZM34.6,33c0,1.8-1.4,3.2-3.2,3.2h-12.9c-1.7,0-3.1-1.3-3.2-3,0,0,0,0,0,0,0,0,0-.1,0-.2v-9.6c0-1.8,1.4-3.2,3.2-3.2h12.9c1.8,0,3.2,1.4,3.2,3.2v9.6ZM25,13.8c-.5,0-1-.2-1.3-.6l-.8-1h19.7c.9,0,1.6.7,1.6,1.6h-19.3ZM27.9,30.2l2.9,2.9h-11.8l3-4,1.9,1.9c.5.5,1.2.6,1.9.3l2.2-1.1ZM31.4,23.4v5.8s-2.1-2.1-2.1-2.1c-.5-.5-1.2-.6-1.9-.3l-2.2,1.1-2.4-2.4c-.3-.3-.8-.5-1.3-.5-.5,0-.9.3-1.2.6l-1.9,2.6v-4.8h12.9Z"/>
</svg>