<?xml version="1.0" encoding="UTF-8"?>
<svg xmlns="http://www.w3.org/2000/svg" viewBox="0 0 274.77 180.94">
  <g style="isolation: isolate;">
    <g id="OBJECTS">
      <g>
        <path d="M241.07,34.48v131.94c0,7.25-6.12,13.13-13.69,13.13H13.69c-2.14,0-4.16-.47-5.96-1.31-.39-.18-.77-.38-1.14-.6-3.94-2.3-6.59-6.47-6.59-11.23V34.48c0-1.38.22-2.72.64-3.96l.02-.68.56-17.77C1.22,6.23,6.15,1.49,12.24,1.49h34.99c9.19,0,16.62,7.14,16.62,15.95v3.9h163.53c.59,0,1.19.03,1.77.12,6.73.83,11.93,6.32,11.93,13.01Z" style="fill: #f4d096;"/>
        <g>
          <path d="M191.91,1.05H57.47c-7.03,0-12.74,6.39-12.74,14.24v123.45c0,7.86,5.72,14.25,12.74,14.25h134.45c7.03,0,12.74-6.39,12.74-14.25V15.29c0-7.85-5.72-14.24-12.74-14.24Z" style="fill: #ccc; mix-blend-mode: multiply;"/>
          <g>
            <rect x="52.46" y="4.61" width="151.69" height="142.72" rx="8.62" ry="8.62" style="fill: #fffaf5;"/>
            <path d="M53.04,98.73s19.58-33.05,54.74-25.33c35.16,7.73,45.39,22.32,63.64,19.32,18.25-3.01,29.37-14.17,29.37-14.17v58.31c0,5.25-4.42,9.51-9.86,9.51H63.26c-5.41,0-9.81-4.21-9.86-9.43l-.36-38.22Z" style="fill: #8fb9ab;"/>
            <ellipse cx="87.7" cy="39.85" rx="14.64" ry="16.36" style="fill: #f4d096;"/>
            <path d="M189.57,36.5c-4.05-4.43-10.38-5.18-15.27-2.5-2.64-8.16-7.47-16.09-16.18-15.33-8.61.76-12.53,9.41-14.49,17.83-4.19-2.83-9.46-3.56-13.74-.24-3.13,2.43-4.92,6.57-4.81,10.66-.82,5.87,3,12,7.76,14.82,5.47,3.23,11.7,2.43,17-.57,3.13,4.41,4.79,6.92,12.15,6.95,3.34.01,6.54-1.79,8.38-4.91.01-.02.03-.04.04-.07.59-1.01,1.18-2.21,1.18-2.21,0,0,9.27,7.21,18.39-1.97,5.53-5.56,5.01-16.52-.42-22.47Z" style="fill: #9cdbd9;"/>
            <path d="M195.53,151.94H61.08c-7.03,0-12.74-6.39-12.74-14.25V14.24c0-7.85,5.72-14.24,12.74-14.24h134.45c7.03,0,12.74,6.39,12.74,14.24v123.45c0,7.86-5.72,14.25-12.74,14.25ZM61.08,9.22c-2.48,0-4.5,2.26-4.5,5.03v123.45c0,2.77,2.02,5.03,4.5,5.03h134.45c2.48,0,4.5-2.26,4.5-5.03V14.24c0-2.77-2.02-5.03-4.5-5.03H61.08Z" style="fill: #314d63;"/>
          </g>
          <path d="M212.69,19.45H78.24c-7.03,0-12.74,6.39-12.74,14.24v123.45c0,7.86,5.72,14.25,12.74,14.25h134.45c7.03,0,12.74-6.39,12.74-14.25V33.7c0-7.85-5.72-14.24-12.74-14.24Z" style="fill: #ccc; mix-blend-mode: multiply;"/>
          <g>
            <rect x="74.24" y="23.54" width="151.69" height="142.72" rx="8.62" ry="8.62" style="fill: #fffaf5;"/>
            <path d="M74.82,117.66s19.58-33.05,54.74-25.33c35.16,7.73,45.39,22.32,63.64,19.32,18.25-3,29.37-14.17,29.37-14.17v58.31c0,5.25-4.42,9.51-9.86,9.51h-127.67c-5.41,0-9.81-4.21-9.86-9.43l-.36-38.22Z" style="fill: #8fb9ab;"/>
            <ellipse cx="109.48" cy="58.79" rx="14.64" ry="16.36" style="fill: #f4d096;"/>
            <path d="M211.34,55.44c-4.05-4.43-10.38-5.18-15.27-2.5-2.64-8.16-7.47-16.09-16.18-15.33-8.61.76-12.53,9.41-14.49,17.83-4.19-2.83-9.46-3.56-13.74-.24-3.13,2.43-4.92,6.57-4.81,10.66-.82,5.87,3,12,7.76,14.82,5.47,3.23,11.7,2.43,17-.57,3.13,4.41,4.79,6.92,12.15,6.95,3.34.01,6.54-1.79,8.38-4.91.01-.02.03-.04.04-.07.59-1.01,1.18-2.21,1.18-2.21,0,0,9.27,7.21,18.39-1.97,5.53-5.56,5.01-16.52-.42-22.47Z" style="fill: #9cdbd9;"/>
            <path d="M217.31,170.87H82.86c-7.03,0-12.74-6.39-12.74-14.25V33.18c0-7.85,5.72-14.24,12.74-14.24h134.45c7.03,0,12.74,6.39,12.74,14.24v123.45c0,7.86-5.72,14.25-12.74,14.25ZM82.86,28.15c-2.48,0-4.5,2.26-4.5,5.03v123.45c0,2.77,2.02,5.03,4.5,5.03h134.45c2.48,0,4.5-2.26,4.5-5.03V33.18c0-2.77-2.02-5.03-4.5-5.03H82.86Z" style="fill: #314d63;"/>
          </g>
        </g>
        <path d="M22.49,180.94h201.23c1.96,0,3.86-.15,5.65-.43.47-.06.93-.14,1.37-.23,5.2-1,9.24-3.1,10.69-5.76l32.79-60.35c2.92-5.37-5.82-10.59-17.73-10.59H55.26c-8.37,0-15.68,2.65-17.73,6.42l-.25.47L4.76,170.36c-2.92,5.37,5.82,10.58,17.73,10.58Z" style="fill: #e2bb81;"/>
      </g>
    </g>
  </g>
</svg>